<svg width="128" height="34" viewBox="0 0 128 34" fill="none" xmlns="http://www.w3.org/2000/svg">
<g clip-path="url(#clip0)">
<path fill-rule="evenodd" clip-rule="evenodd" d="M12.6726 21.6844C12.6152 19.6881 13.9482 17.9916 16.1804 16.6906C16.2049 15.5556 16.3394 14.4257 16.5822 13.3167C11.3014 14.8984 8.04875 17.6153 8.33575 20.8616C8.66101 24.6883 13.8844 28.2344 21.2572 30.2179C16.0784 27.8645 12.7556 24.7649 12.6726 21.6844ZM48.1332 8.76298C48.5707 9.54787 48.9439 10.3669 49.2493 11.212C53.758 12.1862 58.1209 13.7427 62.2281 15.8423C59.3134 12.9149 54.3196 10.434 48.1332 8.76936V8.76298ZM6.28847 21.3719C6.02061 17.0732 10.2491 13.5336 17.1307 11.4353C17.6284 9.99042 18.3192 8.61952 19.1844 7.35986C7.27703 9.31147 -0.701584 14.3946 0.0509956 20.4088C0.688775 25.8682 8.34212 30.6707 18.9675 33.1325C11.48 30.0457 6.55634 25.7853 6.28847 21.3719ZM50.2378 17.6791C50.2378 17.8768 50.2378 18.0746 50.2378 18.2595C50.8756 18.5593 51.4241 18.8973 51.979 19.1779C51.4509 18.6327 50.8793 18.1314 50.2697 17.6791H50.2378Z" fill="#EB5B2B"/>
<path d="M12.6536 22.4626C12.3283 20.3515 13.3615 18.3616 16.1933 16.5185C16.2168 15.4958 16.3342 14.4774 16.544 13.4763C13.6039 15.0069 11.3079 17.7047 12.6536 22.4626ZM6.63934 12.8959C4.78978 15.1153 3.58438 19.7711 7.01563 24.1272C6.24769 22.4006 6.13212 20.454 6.69036 18.6486C7.44294 16.7353 9.03739 15.0516 11.9265 13.5464C13.5903 12.6748 15.3275 11.9514 17.118 11.3843C17.6051 9.96683 18.2854 8.62332 19.1398 7.39185C15.192 8.02962 9.49021 9.45825 6.61383 12.9086L6.63934 12.8959Z" fill="#C64928"/>
<path d="M31.6722 0.637684C31.6722 0.637684 31.7296 0.637684 31.7296 0.554773C31.6466 0.586662 31.6466 0.637684 31.6722 0.637684ZM30.0586 13.3933C29.8864 13.5463 29.9565 13.7185 29.9884 13.8716C30.0203 14.0247 30.1415 13.9545 30.2308 13.9545C30.6007 13.9099 30.9515 13.8716 31.3086 13.8142C31.3164 13.7915 31.3164 13.7668 31.3086 13.744C30.9834 13.591 30.6708 13.4634 30.3328 13.304C30.2053 13.2466 30.1479 13.3167 30.0586 13.3933ZM50.2124 14.0948C50.2191 13.7958 50.1511 13.4999 50.0147 13.2338C50.0215 13.2153 50.0215 13.1949 50.0147 13.1764C50.0147 13.1063 50.0147 13.0489 49.9445 13.0042C49.8744 12.9596 49.9445 12.9596 49.9445 12.9468C49.9318 12.8013 49.8837 12.6612 49.8042 12.5386C49.5363 11.5884 49.1282 10.6827 48.8412 9.73879C48.6074 8.79222 48.1123 7.93037 47.4125 7.25145C46.9684 6.81668 46.6075 6.30443 46.3474 5.73992C46.29 5.61236 46.2454 5.45929 46.0796 5.40189C45.6891 5.22137 45.3558 4.9367 45.1165 4.57916C44.9762 4.42609 44.8933 4.18374 44.651 4.11358C44.3828 3.72716 44.0582 3.38318 43.6879 3.09313C43.0501 2.65307 42.4124 2.2704 41.7746 1.86222C41.7172 1.81758 41.6343 1.76017 41.5769 1.77931C41.3052 1.80962 41.0325 1.73171 40.8179 1.56246C40.499 1.27467 40.1231 1.05735 39.7145 0.924684C39.7145 0.867284 39.6699 0.867284 39.6316 0.867284C39.0194 0.427217 38.2668 0.637684 37.5461 0.484617C37.2158 0.330284 36.8449 0.285589 36.4874 0.357061C36.4409 0.350164 36.3936 0.350164 36.3471 0.357061C36.0218 0.21675 35.671 0.357061 35.3585 0.172105C35.224 0.0850782 35.0721 0.0285603 34.9135 0.00652363C34.7548 -0.015513 34.5932 -0.00253373 34.4401 0.0445493C34.1343 0.109788 33.8211 0.133387 33.509 0.114705C32.7309 0.114705 31.9528 0.0445493 31.1747 0.114705C30.5775 0.0774252 29.978 0.111683 29.3889 0.21675C28.7511 0.344305 28.1133 0.459106 27.4756 0.612173C27.1524 0.636112 26.8386 0.73199 26.5572 0.892795L25.7918 1.07775C25.2269 1.56853 24.7022 2.10385 24.2229 2.67858C23.7321 3.52229 23.0874 4.26647 22.3223 4.87254C21.8485 5.41181 21.4495 6.01248 21.136 6.65832C21.0914 6.70296 21.136 6.78587 21.136 6.84327C21.1338 7.42644 21.0588 8.00704 20.9128 8.57166C20.8299 8.57166 20.8554 8.6737 20.8427 8.72472C20.8299 8.77575 20.7725 8.87779 20.7725 8.97983C20.6316 9.27906 20.5585 9.60574 20.5585 9.9365C20.5585 10.2673 20.6316 10.5939 20.7725 10.8932C20.7151 11.3013 20.9957 11.448 21.2955 11.531C21.465 12.2066 21.771 12.8404 22.1948 13.3933C22.2783 13.5139 22.3872 13.6146 22.514 13.6885C22.6407 13.7623 22.7821 13.8074 22.9282 13.8206C23.2981 13.8652 23.7509 13.8206 24.0188 14.0438C24.6566 14.6114 25.39 15.0515 25.7472 15.8806C25.8516 16.1598 26.0594 16.3882 26.3276 16.5184C26.5554 16.6052 26.7701 16.7232 26.9653 16.8692C27.3034 17.1498 27.6031 17.2199 27.871 16.799C27.871 16.799 27.9156 16.799 27.9411 16.799L28.1963 17.475L28.0241 17.8258C27.7432 18.2479 27.5281 18.7103 27.3863 19.1971C27.2258 19.8886 27.1635 20.5992 27.2013 21.3081C27.2146 21.8096 27.3717 22.2966 27.6541 22.7112C27.9259 23.1601 28.233 23.5867 28.5725 23.9868C28.712 24.2789 28.8831 24.5547 29.0828 24.8095C29.4892 25.0264 29.9166 25.2017 30.3583 25.3325C30.4127 25.38 30.4639 25.4312 30.5114 25.4856C30.6134 26.3338 30.5816 27.182 30.5943 28.0367C30.6361 28.4904 30.5334 28.9458 30.3009 29.3377C30.0586 29.561 30.1606 29.8161 30.2435 30.0584C30.3637 30.2675 30.4317 30.5025 30.4417 30.7434C30.4517 30.9843 30.4034 31.2241 30.3009 31.4424C30.9387 32.0802 31.5765 32.6606 32.565 32.5458C32.4868 32.6152 32.3943 32.6666 32.294 32.6964C32.1937 32.7262 32.0881 32.7335 31.9847 32.718L32.1122 32.8328L30.9068 33.005C30.6668 32.9105 30.4121 32.8587 30.1542 32.8519C29.9311 32.7792 29.722 32.6692 29.5356 32.5266C29.3052 32.3862 29.04 32.3133 28.7703 32.3162C29.2309 32.7453 29.7762 33.0733 30.3711 33.2792C30.5943 33.4068 30.8239 33.5216 31.0471 33.63C31.1619 33.63 31.2576 33.6874 31.3596 33.63C31.4679 33.7702 31.6105 33.8802 31.7735 33.9495C31.9366 34.0187 32.1147 34.0449 32.2908 34.0254C33.0394 33.9729 33.782 33.8555 34.5103 33.6746L34.81 33.63C34.8435 33.6216 34.8786 33.6216 34.9121 33.63L35.5499 33.528C35.6031 33.5401 35.6583 33.5413 35.712 33.5315C35.7658 33.5216 35.8169 33.5009 35.8624 33.4705C36.1201 33.4623 36.3745 33.4105 36.6149 33.3175C37.1953 33.0496 37.7629 32.7817 38.3561 32.5266C38.6558 32.3991 38.7387 32.1567 38.8535 31.8889C38.2158 32.3991 37.3803 32.3672 36.6915 32.7243C36.3535 32.7817 36.0154 32.8774 35.671 32.9093C35.2319 32.995 34.7819 33.0101 34.3381 32.9539C34.3425 32.7862 34.2806 32.6235 34.1659 32.5011C33.7832 32.3608 33.4324 32.5585 33.0625 32.6159C32.9222 32.6159 32.7819 32.7307 32.6671 32.5585C32.8393 32.1185 32.412 32.0802 32.2143 31.9207C32.1886 31.4619 32.329 31.0091 32.6097 30.6452C32.8329 30.2051 33.3049 30.135 33.6684 29.9245L33.7258 29.8799C33.8637 29.8203 34.0067 29.7733 34.1531 29.7395C34.4529 29.6821 34.6187 29.3696 34.9312 29.3441C35.0616 29.3858 35.2025 29.3806 35.3295 29.3293C35.4564 29.2781 35.5615 29.184 35.6264 29.0635C36.0346 28.6681 36.43 28.2599 36.9019 27.8772C36.9807 27.8152 37.0391 27.7311 37.0698 27.6356C37.1005 27.5402 37.102 27.4378 37.0741 27.3415C37.004 27.0991 37.1188 27.0162 37.2974 26.9142C37.8522 26.6463 38.3752 26.3466 38.9237 26.0787C39.0452 26.0242 39.1443 25.9297 39.2043 25.8108C39.5168 25.0072 39.8421 24.1972 40.1801 23.4064L41.5386 21.8502C41.596 21.7801 41.6789 21.7227 41.6406 21.5951C41.5972 21.3729 41.522 21.1581 41.4174 20.9573C41.3154 20.817 41.0922 20.9573 40.9391 20.9573C40.9391 20.9573 40.8817 20.9573 40.8689 20.9573C40.7404 20.7258 40.5431 20.54 40.3042 20.4258C40.0654 20.3115 39.7969 20.2744 39.536 20.3195C39.0107 20.4256 38.4648 20.3303 38.0064 20.0527C37.5481 19.7751 37.2108 19.3354 37.0614 18.8208C37.0156 18.6376 36.9096 18.4751 36.7604 18.3595C36.6112 18.2438 36.4274 18.1816 36.2387 18.183C35.5069 18.1682 34.8085 17.8738 34.287 17.3603C34.1092 17.1721 33.9102 17.0051 33.6939 16.8628C33.5675 16.7528 33.4083 16.6878 33.2411 16.6778C32.5808 16.4192 31.891 16.2436 31.1874 16.1548L30.218 16.5822C30.218 16.3717 30.218 16.1548 30.218 15.9444C30.218 15.7339 30.116 15.6319 29.9055 15.6765C29.6389 15.772 29.3945 15.9207 29.1873 16.1137C28.9801 16.3067 28.8143 16.5399 28.7001 16.799C28.6846 16.8251 28.6652 16.8488 28.6427 16.8692C28.2919 16.6268 27.9475 16.3462 27.4947 16.6268C27.4373 16.6714 27.3799 16.6268 27.3225 16.5822C27.01 16.2824 26.5699 16.0592 26.8123 15.4788C26.8626 15.2893 26.8905 15.0945 26.8952 14.8984C26.8952 14.7007 26.8952 14.5732 26.6528 14.5285C26.2702 14.4584 25.9003 14.3308 25.5367 14.2479C25.339 14.2032 25.3135 14.1331 25.3964 13.9673C25.6196 13.54 25.8365 13.1063 26.0342 12.6917C26.1362 12.494 26.0788 12.4238 25.862 12.4685C25.4347 12.5259 24.9436 12.4238 24.8543 13.0489L23.6489 13.1764C23.5069 12.9624 23.427 12.7132 23.418 12.4566C23.409 12.1999 23.4712 11.9457 23.5979 11.7223C23.6358 11.633 23.6595 11.5383 23.668 11.4417C23.668 11.3588 23.668 11.2886 23.668 11.1993C23.679 11.0572 23.7265 10.9203 23.8058 10.8019C23.8851 10.6835 23.9936 10.5875 24.1209 10.5233C24.3431 10.361 24.556 10.1864 24.7586 10.0003C24.8734 9.88548 25.001 9.80257 25.1541 9.87272C25.54 9.99902 25.9594 9.97394 26.3276 9.80257C26.4825 9.75813 26.6448 9.74539 26.8048 9.76511C26.9648 9.78484 27.1192 9.83662 27.2587 9.91737C27.6988 10.0896 27.5712 10.4276 27.584 10.721C27.584 10.7911 27.584 10.8485 27.584 10.9187C27.5989 11.0292 27.6453 11.1331 27.7177 11.2179C27.7901 11.3027 27.8854 11.3649 27.9922 11.397C28.1197 11.4417 28.2473 11.0143 28.1771 10.7592C28.1847 10.6126 28.1847 10.4658 28.1771 10.3192C28.0901 10.0784 28.066 9.81933 28.107 9.56659C28.3705 9.35244 28.6498 9.15843 28.9425 8.98621C29.1551 8.8908 29.3337 8.73292 29.4545 8.53355C29.5752 8.33418 29.6325 8.10277 29.6185 7.8701C29.6185 7.58948 29.7716 7.46192 30.0458 7.34712C30.5688 7.13665 31.1492 6.97721 31.3788 6.35856C31.4234 6.25652 31.5318 6.23101 31.6211 6.20549C31.8762 6.10345 32.1314 6.02054 32.3992 5.93763C32.3418 6.2629 32.3992 6.3777 32.5013 6.3203C32.8785 6.1585 33.2307 5.94374 33.5472 5.68252C33.324 5.68252 33.2092 5.73992 33.0944 5.75267C32.7117 5.75267 32.6543 5.75267 32.7436 5.34449C32.7926 5.18881 32.7926 5.02185 32.7436 4.86616L32.4184 4.94907C32.3354 4.99372 32.2334 5.03198 32.1058 5.10214C32.1632 4.92994 32.278 4.92994 32.3482 4.87254L32.4056 4.78963L32.5268 4.73223C33.0625 4.67483 33.6174 5.01285 34.1978 4.73223C34.1276 5.00009 34.0702 5.24245 34 5.58047C34.4784 5.18505 34.9184 5.44016 35.4159 5.52307C35.1927 5.1978 35.1353 4.78963 34.6506 4.88529C34.6105 4.88531 34.5713 4.87312 34.5382 4.85034C34.5052 4.82756 34.4799 4.79526 34.4656 4.75774C34.457 4.71631 34.4623 4.67318 34.4807 4.63509C34.4992 4.59701 34.5298 4.56612 34.5677 4.54727C34.6697 4.48987 34.7909 4.41971 34.6825 4.3368C34.4401 4.12634 34.4018 3.78193 34.1595 3.58422C33.9171 3.38651 33.5217 3.1314 33.2283 2.88904C33.177 2.84803 33.1159 2.82115 33.051 2.81108C32.9861 2.80101 32.9197 2.8081 32.8584 2.83164C32.5204 2.93369 32.1824 2.94644 31.9974 2.55102C31.9173 2.4081 31.7909 2.29674 31.639 2.23529C31.4872 2.17385 31.3189 2.16598 31.1619 2.213C30.8622 2.25764 30.8112 2.58291 30.792 2.85078C30.7729 3.11864 30.7346 3.29084 30.69 3.48856C30.3902 3.76918 30.0968 4.05618 29.7971 4.34956L29.6249 3.71178C29.2171 3.38217 28.7913 3.07556 28.3493 2.79338C28.8213 2.43875 29.3227 2.1251 29.8481 1.85584C30.0531 1.69226 30.297 1.58459 30.556 1.54333C30.6662 1.54192 30.7748 1.51734 30.8748 1.47119C30.9747 1.42504 31.0639 1.35835 31.1364 1.27546C31.2359 1.22745 31.3449 1.20251 31.4553 1.20251C31.5657 1.20251 31.6748 1.22745 31.7742 1.27546C31.9145 1.33286 32.0548 1.40302 31.8316 1.54333C31.7023 1.58149 31.5884 1.65964 31.5063 1.76655C32.4247 2.6722 32.3291 2.46173 33.0179 2.23213C32.8329 2.14922 32.5395 2.18749 32.6097 1.88135C32.7117 1.47317 32.4821 1.24357 32.1569 1.05862C32.0003 0.958274 31.8491 0.8497 31.704 0.733351C31.6914 0.721181 31.6819 0.706115 31.6763 0.68945C31.6707 0.672785 31.6693 0.65502 31.6722 0.637684C31.6148 0.637684 31.5318 0.567528 31.5 0.637684C31.2193 0.82264 30.8239 0.777995 30.6071 1.09051C30.4795 1.14791 30.4094 0.988462 30.2818 1.0076L30.1415 1.10964C30.0417 1.10247 29.9415 1.10247 29.8417 1.10964C29.6568 1.02673 29.6568 1.02673 29.8417 0.797129C29.5739 0.924684 29.4336 0.682328 29.204 0.714217C29.204 0.542017 29.3443 0.573906 29.4591 0.56115C30.0968 0.433595 30.7346 0.306039 31.3278 0.191239C31.4426 0.191239 31.6084 0.146594 31.551 0.363439C31.4936 0.580284 31.653 0.478239 31.6658 0.548395C31.889 0.548395 32.1186 0.733351 32.3418 0.548395C32.4647 0.480675 32.6057 0.452888 32.7451 0.468888C32.8845 0.484887 33.0155 0.54388 33.1199 0.637684C33.4579 0.892795 33.9235 0.905551 34.2233 1.27546C34.3381 1.48593 34.2233 1.77293 34.3955 1.91324C34.682 2.17741 34.9891 2.4184 35.3139 2.63393C35.3821 2.69524 35.4654 2.7375 35.5551 2.75647C35.6449 2.77545 35.7381 2.77047 35.8253 2.74204C35.9126 2.7136 35.9908 2.66271 36.0522 2.59448C36.1135 2.52625 36.1558 2.44307 36.1749 2.35331C36.1749 2.30867 36.1749 2.28315 36.1749 2.25126C36.2195 1.8686 36.4746 1.7538 36.8127 1.68364C36.953 1.68364 37.1826 1.68364 37.2081 1.49869C37.2336 1.31373 37.0805 1.12877 36.9275 1.02035L36.3535 0.529261L36.7234 0.484617C36.7742 0.477859 36.8256 0.477859 36.8764 0.484617L37.8522 0.739728C38.7834 1.02035 39.7656 1.24995 40.3715 2.0982C40.4375 2.19088 40.5313 2.26013 40.6393 2.29591C40.6938 2.31087 40.7455 2.33457 40.7924 2.36607C40.7924 2.58929 40.5118 2.42347 40.5118 2.60842C40.6967 2.83164 41.0348 2.86353 41.1878 3.1314C41.1432 3.37376 41.3026 3.55871 41.3855 3.76918C41.5386 4.13909 41.7937 3.95414 41.9659 3.85209C42.1381 3.75005 41.8958 3.60973 41.8639 3.50131C41.832 3.39289 41.8065 3.4184 41.7937 3.37376C41.8097 3.34399 41.8341 3.3196 41.8639 3.3036C42.457 3.40564 42.3996 3.89673 42.457 4.36231C42.795 4.0498 42.9353 4.222 42.98 4.54727C43.0246 4.87254 43.2925 4.92994 43.6178 4.91718C43.7453 5.01923 43.7453 5.18505 43.8282 5.32536C43.8379 5.3538 43.8416 5.38395 43.8391 5.4139C43.8365 5.44385 43.8278 5.47294 43.8134 5.49933C43.799 5.52572 43.7793 5.54883 43.7555 5.56719C43.7317 5.58555 43.7043 5.59876 43.6752 5.60598C43.4073 5.72078 43.4519 5.87385 43.5731 6.07156C43.7963 6.44147 44.0004 6.8369 44.2109 7.21956C44.4788 7.41727 44.7084 7.68514 45.091 7.57034C45.1847 7.50819 45.2585 7.42046 45.3037 7.31757C45.3489 7.21469 45.3637 7.10098 45.3461 6.98996C45.3461 6.65194 45.3461 6.29478 45.3461 5.88661C45.6459 6.07156 45.799 6.31392 46.0796 6.21187C46.1027 6.20706 46.1266 6.20706 46.1497 6.21187C45.9775 6.62005 46.6472 6.59454 46.5452 6.96445C46.8704 7.09201 46.9406 7.41728 47.1255 7.65963C47.1829 7.74254 47.0554 7.70428 47.0107 7.70428C46.5707 7.62136 46.4559 7.26421 46.373 6.91343C46.2709 6.76036 46.188 6.79863 46.0732 6.91343L45.2441 7.65325C45.1994 7.96577 44.8933 8.20812 45.0336 8.5589C45.0262 8.57489 45.0224 8.5923 45.0224 8.60992C45.0224 8.62755 45.0262 8.64496 45.0336 8.66094C45.0268 8.70747 45.0268 8.75473 45.0336 8.80126C45.0515 9.25797 44.9688 9.71302 44.7913 10.1342C44.7424 10.2858 44.7083 10.4417 44.6892 10.5998C44.517 10.8995 44.804 11.1547 44.7913 11.4225C44.8886 12.2173 45.0529 13.0024 45.2824 13.7696C45.4098 14.4041 45.6244 15.0179 45.9201 15.5936C45.9648 15.6765 45.9903 15.7658 46.0923 15.8041C46.317 16.2091 46.5774 16.5933 46.8704 16.9521C46.9406 17.0541 46.998 17.1753 47.1511 17.035C47.7124 16.9471 48.2297 16.6784 48.6243 16.2696C48.7503 16.1357 48.8868 16.012 49.0325 15.8997C49.1473 15.8997 49.2175 15.8997 49.1601 16.0528C49.1027 16.2059 49.1601 16.1931 49.2749 16.1804C49.31 16.6836 49.31 17.1887 49.2749 17.6919C49.2396 18.1483 49.2396 18.6067 49.2749 19.0631C49.007 20.0963 48.6945 21.1168 48.484 22.1627C48.1842 23.0429 47.8462 23.9039 47.5656 24.7776C47.5253 24.8013 47.4907 24.8336 47.4642 24.8722C47.4378 24.9108 47.4201 24.9547 47.4125 25.0008C47.3903 25.033 47.3711 25.0672 47.3551 25.1029C47.3105 25.1029 47.2531 25.1603 47.2531 25.1858C47.2531 25.2113 47.336 25.256 47.3551 25.2432C47.5656 25.0901 47.8909 25.02 47.808 24.6501C47.808 24.5927 47.8526 24.5225 47.8781 24.4779C48.507 23.6474 48.9586 22.6966 49.2047 21.6844C49.1961 21.6509 49.1961 21.6158 49.2047 21.5823C49.3323 21.1168 49.4598 20.6639 49.5746 20.1984C49.8871 18.8399 50.3272 17.5069 50.2124 16.0656C50.1805 15.415 50.2124 14.7454 50.2124 14.0948ZM21.1488 10.8421C21.1488 10.587 20.8363 10.3447 21.1488 10.0896C21.1773 10.3396 21.1773 10.5921 21.1488 10.8421ZM29.2167 5.73992C29.2167 6.05243 28.9169 6.23738 28.8213 6.50525C29.1964 6.34848 29.5822 6.21847 29.9757 6.11621H30.116C29.9903 6.32858 29.7901 6.48665 29.5544 6.55972C29.3187 6.63279 29.0642 6.61565 28.8404 6.51163C28.7879 6.5641 28.7228 6.60221 28.6513 6.62231C28.5798 6.64241 28.5044 6.64383 28.4322 6.62643C28.3174 6.62643 28.5343 6.42872 28.5725 6.34581C28.6746 6.04605 28.4705 5.79094 28.4896 5.52307C28.7447 5.47843 28.9552 5.67614 29.2103 5.70803L29.2167 5.73992ZM28.4641 5.51669C28.4293 5.51862 28.3955 5.5289 28.3655 5.54666C28.3356 5.56442 28.3103 5.58915 28.2919 5.61874C28.107 5.94401 27.8965 6.25652 27.6988 6.56903C27.4437 6.7221 27.4182 6.62643 27.4309 6.37132C27.4756 5.89298 27.7817 5.67614 28.2345 5.58047C28.0623 5.46567 27.8837 5.58047 27.7817 5.44016C27.6797 5.29985 27.6286 5.24245 27.5011 5.15954L28.2537 4.98734C28.547 5.0256 28.4067 5.3126 28.4641 5.47843V5.51669ZM28.3111 1.26909C28.2501 1.30063 28.1811 1.31323 28.1129 1.30528C28.0447 1.29732 27.9805 1.26917 27.9284 1.22444C27.8582 1.14153 27.9985 1.08413 27.9284 1.01397C27.9823 0.970737 28.0399 0.932322 28.1006 0.899173L28.4514 1.00122C28.4769 1.09051 28.2218 1.05224 28.3047 1.2372L28.3111 1.26909ZM28.496 13.3104C28.9488 13.253 29.3762 13.1956 29.9119 13.1126C29.4932 12.8958 29.0884 12.653 28.7001 12.3856C28.4486 12.1351 28.1119 11.9888 27.7572 11.9758C27.4025 11.9628 27.0559 12.0841 26.7868 12.3154C26.7868 12.3154 26.672 12.3154 26.7039 12.4302H28.1325C28.2458 12.4368 28.3561 12.4696 28.4546 12.5261C28.5531 12.5825 28.6371 12.661 28.7001 12.7555C28.8149 12.9277 28.5598 13.0361 28.5024 13.1956C28.5023 13.2237 28.498 13.2516 28.4896 13.2785L28.496 13.3104ZM38.7005 1.639C38.4199 1.5816 38.1456 1.5242 37.865 1.45404C37.865 2.16198 37.865 2.16198 38.5028 2.28953C39.0257 2.39158 39.0704 2.33418 38.9301 1.82395C38.9268 1.7636 38.9005 1.70681 38.8566 1.66528C38.8127 1.62375 38.7545 1.60064 38.6941 1.60073L38.7005 1.639ZM68.7973 13.119H76.2274V25.1794C76.2698 25.7453 76.1948 26.3139 76.0071 26.8495C75.8194 27.3851 75.5231 27.8761 75.1368 28.2918C74.7888 28.6335 74.3758 28.9021 73.9224 29.0817C73.4689 29.2614 72.984 29.3484 72.4964 29.3377C71.055 29.3377 69.569 28.6171 68.0319 27.1565L65.7933 30.2689C66.6933 31.2055 67.777 31.9461 68.9765 32.4443C70.1761 32.9426 71.4656 33.1877 72.7643 33.1644C73.7437 33.2004 74.7203 33.0369 75.6347 32.6839C76.5491 32.3308 77.3822 31.7956 78.0833 31.1108C79.4694 29.7544 80.1625 27.7178 80.1625 25.0008V9.56659H68.7909L68.7973 13.119ZM102.249 11.6075C100.616 10.2469 98.0246 9.56659 94.4743 9.56659H86.451V32.9284H90.3988V26.0851H94.5444C97.9842 26.0851 100.535 25.4239 102.198 24.1016C103.86 22.7792 104.689 20.7086 104.685 17.8896C104.677 15.0579 103.862 12.9596 102.242 11.5947L102.249 11.6075ZM99.4489 21.2571C98.6581 22.0926 97.1721 22.5326 94.9845 22.5326H90.3988V13.1382H94.3913C96.5407 13.1382 98.116 13.4762 99.1173 14.1458C100.119 14.8155 100.616 15.9571 100.616 17.5707C100.717 18.9012 100.296 20.2188 99.4426 21.2443L99.4489 21.2571ZM125.12 11.6075C123.483 10.2469 120.893 9.56659 117.351 9.56659H109.328V32.9284H113.276V26.0851H117.422C120.844 26.0851 123.395 25.4239 125.075 24.1016C126.754 22.7792 127.583 20.7086 127.562 17.8896C127.558 15.0579 126.739 12.9596 125.107 11.5947L125.12 11.6075ZM122.332 21.2571C121.542 22.0926 120.056 22.5326 117.868 22.5326H113.295V13.1382H117.3C119.437 13.1382 121.025 13.4762 122.014 14.1458C123.002 14.8155 123.525 15.9571 123.525 17.5707C123.617 18.9055 123.185 20.2236 122.32 21.2443L122.332 21.2571ZM71.8012 6.25652C72.2168 6.26542 72.6291 6.17993 73.0069 6.00649C73.3847 5.83305 73.7182 5.57618 73.9824 5.2552C73.9824 5.32536 73.9824 5.45292 73.9824 6.16085H74.4097V3.35462H72.2604V3.78193H73.9824V4.71309C73.746 5.067 73.4236 5.35506 73.0455 5.55028C72.6673 5.7455 72.2458 5.84148 71.8203 5.82921C71.4981 5.8414 71.1768 5.78594 70.8773 5.6664C70.5778 5.54686 70.3066 5.36589 70.0813 5.13516C69.856 4.90443 69.6815 4.62906 69.5691 4.32678C69.4567 4.0245 69.4088 3.70202 69.4287 3.38013C69.4066 3.05833 69.4531 2.7355 69.5648 2.43293C69.6766 2.13036 69.8513 1.85491 70.0772 1.62473C70.3032 1.39454 70.5754 1.21485 70.8758 1.09749C71.1763 0.980121 71.4982 0.927748 71.8203 0.943818C72.241 0.919935 72.6595 1.01949 73.0243 1.23024C73.3892 1.44099 73.6845 1.75375 73.874 2.13009L74.3268 2.00253C74.1004 1.53755 73.7418 1.14973 73.2959 0.887654C72.85 0.625581 72.3368 0.50091 71.8203 0.529261C71.4411 0.511889 71.0624 0.574004 70.7086 0.71162C70.3547 0.849236 70.0336 1.05931 69.7658 1.32836C69.4979 1.59741 69.2893 1.9195 69.1532 2.27394C69.0172 2.62838 68.9568 3.00734 68.9758 3.38651C68.959 3.76409 69.0203 4.14108 69.1557 4.49393C69.2912 4.84678 69.4979 5.16791 69.7631 5.43725C70.0282 5.70659 70.3461 5.91836 70.6967 6.05932C71.0474 6.20029 71.4234 6.26742 71.8012 6.25652ZM85.3731 3.82658C85.7488 3.79874 86.0986 3.62498 86.3477 3.34249C86.5968 3.05999 86.7255 2.6912 86.7061 2.31504C86.7061 1.27546 85.9535 0.637684 84.678 0.637684H83.109V6.16085H83.5491V3.89673H84.9076L86.2214 6.16085H86.7763L85.3731 3.82658ZM84.7354 3.51407H83.5491V1.065H84.678C85.641 1.065 86.2469 1.46042 86.2469 2.34055C86.2469 3.22069 85.6283 3.51407 84.7354 3.51407ZM98.218 6.25652C99.6466 6.25652 100.367 5.43378 100.367 3.89036V0.637684H99.9145V3.90949C99.9145 5.18505 99.3915 5.82283 98.218 5.82283C97.0445 5.82283 96.5215 5.18505 96.5215 3.90949V0.637684H96.0687V3.89036C96.0432 5.44016 96.7511 6.25652 98.218 6.25652ZM110.132 3.97965H111.235C112.511 3.97965 113.257 3.38651 113.257 2.29591C113.257 1.20531 112.485 0.637684 111.21 0.637684H109.653V6.16085H110.106L110.132 3.97965ZM110.132 1.065H111.248C112.224 1.065 112.817 1.43491 112.817 2.34055C112.817 3.2462 112.281 3.61611 111.248 3.61611H110.132V1.065ZM124.718 6.25652C125.096 6.26637 125.472 6.19862 125.823 6.05746C126.174 5.9163 126.492 5.70471 126.758 5.43577C127.024 5.16683 127.232 4.84624 127.369 4.49378C127.506 4.14133 127.57 3.76448 127.556 3.38651C127.556 3.01213 127.482 2.64141 127.339 2.29553C127.196 1.94965 126.986 1.63537 126.721 1.37064C126.456 1.10591 126.142 0.895918 125.796 0.752649C125.45 0.609379 125.079 0.535639 124.705 0.535639C124.331 0.535639 123.96 0.609379 123.614 0.752649C123.268 0.895918 122.954 1.10591 122.689 1.37064C122.424 1.63537 122.214 1.94965 122.071 2.29553C121.928 2.64141 121.854 3.01213 121.854 3.38651C121.837 3.76575 121.899 4.1444 122.035 4.49859C122.172 4.85278 122.381 5.17484 122.648 5.44447C122.915 5.7141 123.235 5.92545 123.588 6.06521C123.941 6.20497 124.319 6.27011 124.699 6.25652H124.718ZM124.718 0.950196C125.039 0.938152 125.359 0.993281 125.658 1.11206C125.956 1.23083 126.227 1.41063 126.452 1.63996C126.677 1.86929 126.852 2.14308 126.965 2.44383C127.078 2.74458 127.127 3.06566 127.109 3.38651C127.109 4.02082 126.857 4.62915 126.409 5.07768C125.96 5.5262 125.352 5.77818 124.718 5.77818C124.083 5.77818 123.475 5.5262 123.027 5.07768C122.578 4.62915 122.326 4.02082 122.326 3.38651C122.309 3.06755 122.359 2.74856 122.471 2.4496C122.583 2.15064 122.757 1.87817 122.979 1.64934C123.202 1.42052 123.47 1.24027 123.766 1.11995C124.062 0.99963 124.379 0.941833 124.699 0.950196H124.718Z" fill="#212121"/>
</g>
<defs>
<clipPath id="clip0">
<rect width="127.556" height="34" fill="white"/>
</clipPath>
</defs>
</svg>
