<svg width="30" height="30" viewBox="0 0 30 30" fill="none" xmlns="http://www.w3.org/2000/svg">
<path d="M21.2236 0.00513513C22.3943 -0.0352849 23.5609 0.163255 24.6523 0.58864C25.7437 1.01403 26.737 1.65733 27.5715 2.47931C28.3759 3.31378 29.0049 4.30106 29.4213 5.38278C29.8377 6.4645 30.033 7.61871 29.9957 8.7772V21.223C29.9957 23.8222 29.146 26.0589 27.5215 27.6334C25.7982 29.2244 23.5178 30.0728 21.1736 29.9951H8.82777C6.50325 30.0671 4.24432 29.2183 2.54238 27.6334C1.69872 26.7884 1.03811 25.7787 0.60169 24.6672C0.165274 23.5558 -0.0375932 22.3663 0.00572535 21.173V8.7772C0.00572535 3.50396 3.50455 0.00513513 8.77779 0.00513513H21.2236ZM21.2861 2.7917H8.82777C7.01588 2.7917 5.4539 3.32902 4.41675 4.35368C3.86255 4.94396 3.43306 5.63993 3.15395 6.39997C2.87484 7.16002 2.75183 7.96854 2.79229 8.7772V21.173C2.79229 23.0474 3.32961 24.5469 4.41675 25.6466C5.62924 26.719 7.21061 27.2789 8.82777 27.2085H21.1736C22.7908 27.2789 24.3722 26.719 25.5847 25.6466C26.1668 25.0706 26.6229 24.38 26.924 23.6186C27.2252 22.8571 27.3648 22.0413 27.3341 21.223V8.7772C27.3744 7.16857 26.7925 5.60641 25.7096 4.41616C25.1193 3.86196 24.4234 3.43247 23.6633 3.15336C22.9033 2.87425 22.0948 2.75124 21.2861 2.7917ZM15.0007 7.20272C19.2368 7.20272 22.7481 10.7016 22.7481 14.9501C22.7481 17.0049 21.9319 18.9755 20.4789 20.4284C19.026 21.8813 17.0554 22.6975 15.0007 22.6975C12.946 22.6975 10.9754 21.8813 9.52246 20.4284C8.06954 18.9755 7.2533 17.0049 7.2533 14.9501C7.2533 12.8954 8.06954 10.9248 9.52246 9.47189C10.9754 8.01897 12.946 7.20272 15.0007 7.20272ZM15.0007 9.9768C13.687 9.98336 12.429 10.5081 11.5001 11.437C10.5712 12.366 10.0464 13.624 10.0399 14.9376C10.0464 16.2513 10.5712 17.5093 11.5001 18.4382C12.429 19.3671 13.687 19.8919 15.0007 19.8985C16.3144 19.8919 17.5724 19.3671 18.5013 18.4382C19.4302 17.5093 19.955 16.2513 19.9615 14.9376C19.955 13.624 19.4302 12.366 18.5013 11.437C17.5724 10.5081 16.3144 9.98336 15.0007 9.9768ZM23.048 5.26587C23.512 5.26587 23.957 5.45019 24.285 5.77826C24.6131 6.10634 24.7974 6.55131 24.7974 7.01529C24.7974 7.47926 24.6131 7.92423 24.285 8.25231C23.957 8.58039 23.512 8.7647 23.048 8.7647C22.584 8.7647 22.1391 8.58039 21.811 8.25231C21.4829 7.92423 21.2986 7.47926 21.2986 7.01529C21.2986 6.55131 21.4829 6.10634 21.811 5.77826C22.1391 5.45019 22.584 5.26587 23.048 5.26587Z" fill="white"/>
</svg>
