<svg xmlns="http://www.w3.org/2000/svg" viewBox="0 0 221.6 50"><path d="M31.1 50L16.2 27.9l9.7-14.5h12.3l-9.5 14.5L43.4 50h16L44.7 27.9 63 0H18.9L0 27.7 15 50h16.1z" fill="#b3212f"/><linearGradient id="a" gradientUnits="userSpaceOnUse" x1="49.268" y1="6" x2="39.748" y2="20.067" gradientTransform="matrix(1 0 0 -1 0 52.617)"><stop offset="0" stop-opacity="0"/><stop offset="1"/></linearGradient><path d="M36.7 39.9L43.4 50h16L44.6 27.7l-7.9 12.2z" opacity=".25" fill="url(#a)"/><linearGradient id="b" gradientUnits="userSpaceOnUse" x1="20.811" y1="5.938" x2="11.348" y2="19.92" gradientTransform="matrix(1 0 0 -1 0 52.617)"><stop offset="0" stop-opacity="0"/><stop offset="1"/></linearGradient><path d="M8.2 39.9L14.9 50h16L16.2 27.9l-8 12z" opacity=".25" fill="url(#b)"/><linearGradient id="c" gradientUnits="userSpaceOnUse" x1="8.392" y1="24.457" x2="18.818" y2="41.768" gradientTransform="matrix(1 0 0 -1 0 52.617)"><stop offset="0" stop-opacity="0"/><stop offset="1"/></linearGradient><path d="M9.8 13.4L0 27.7l8.2 12.2 17.7-26.4H9.8z" opacity=".25" fill="url(#c)"/><path d="M147.2 40.2c.4-.3.9-.4 1.5-.4.9 0 1.7.4 2.3 1.1l1.3-1.3c-.4-.5-1-.9-1.6-1.2-.6-.3-1.3-.4-2.1-.4-.9 0-1.8.2-2.5.6-.7.4-1.3 1-1.8 1.7-.4.7-.6 1.5-.6 2.4 0 .9.2 1.7.6 2.4.4.7 1 1.3 1.8 1.7.7.4 1.6.6 2.5.6.8 0 1.5-.1 2.1-.4.6-.3 1.2-.7 1.6-1.2l-1.3-1.3c-.6.7-1.4 1.1-2.3 1.1-.6 0-1.1-.1-1.5-.4-.4-.3-.8-.6-1-1-.3-.4-.4-.9-.4-1.5s.1-1.1.4-1.5c.2-.4.6-.8 1-1zm-36.6-17.4h7.8l15.2-20.3H96.5L73.6 33.2l10.7-.1 17.3-23.2h15.8l-4 5.4H98.8l6.4 17.9h8.9l-3.5-10.4zm2.4 19.4l-2.4-4.1h-2.2l3.5 5.9v3.3h2.1V44l3.5-5.9h-2.1l-2.4 4.1zm-35.9-2c.4-.3.9-.4 1.5-.4.9 0 1.7.4 2.3 1.1l1.3-1.3c-.4-.5-1-.9-1.6-1.2-.6-.3-1.3-.4-2.1-.4-.9 0-1.8.2-2.5.6-.7.4-1.3 1-1.8 1.7-.4.7-.6 1.5-.6 2.4 0 .9.2 1.7.6 2.4.4.7 1 1.3 1.8 1.7.7.4 1.6.6 2.5.6.8 0 1.5-.1 2.1-.4.6-.3 1.2-.7 1.6-1.2l-1.3-1.3c-.6.7-1.4 1.1-2.3 1.1-.6 0-1.1-.1-1.5-.4-.4-.3-.8-.6-1-1-.3-.4-.4-.9-.4-1.5s.1-1.1.4-1.5c.2-.4.6-.8 1-1zm139.6 3.3h4.2v-1.6h-4.2v-2h4.8v-1.7h-6.8v9.1h7v-1.7h-4.9l-.1-2.1zm-6.3-40.9h-9.1l-22.9 30.7h11.1l15-20.8 3.6 10.5h-10.8l2.6 7.5h10.7l.9 2.8h10L210.4 2.6zm-71 0l-22.9 30.7h11.1l15-20.8 3.6 10.5H135l2.6 7.5h11.2l.9 2.8h10L148.4 2.6h-9zm42.4 35.5h-2.1v9.1h6.6v-1.7h-4.5v-7.4zM184 2.6L170.5 21c-.6-1.8-6.5-18.4-6.5-18.4h-10.2l11.8 30.7h6.3l23.6-30.7H184z"/></svg>