<svg width="203" height="45" viewBox="0 0 203 45" fill="none" xmlns="http://www.w3.org/2000/svg">
<path d="M27.9983 45L14.5107 24.9739L23.3474 12.0766H34.4165L25.8589 25.1381L39.0441 45H53.4619L40.2301 25.0912L56.6942 0H17.0455L0 24.9036L13.5108 45H27.9983Z" fill="white"/>
<path opacity="0.25" d="M33.0677 35.925L39.0674 44.9531H53.4851L40.1836 24.9739L33.0677 35.925Z" fill="url(#paint0_linear)"/>
<path opacity="0.25" d="M7.41815 35.8781L13.441 44.9531H27.8588L14.5107 24.9739L7.41815 35.8781Z" fill="url(#paint1_linear)"/>
<path opacity="0.25" d="M9.25525 11.8421L0.348816 24.927L7.55768 35.7139L23.2777 11.8421H9.25525Z" fill="url(#paint2_linear)"/>
<path d="M135.992 36.1594C136.387 35.9249 136.829 35.8311 137.341 35.8311C138.154 35.8311 138.829 36.1594 139.387 36.7926L140.596 35.667C140.201 35.198 139.736 34.8463 139.154 34.5883C138.573 34.3304 137.945 34.2131 137.248 34.2131C136.41 34.2131 135.666 34.4007 134.992 34.7525C134.317 35.1276 133.783 35.6201 133.411 36.2767C133.015 36.9333 132.829 37.6602 132.829 38.4575C132.829 39.2782 133.015 40.0052 133.411 40.6383C133.806 41.2949 134.317 41.7874 134.992 42.1626C135.666 42.5378 136.41 42.7019 137.248 42.7019C137.945 42.7019 138.596 42.5847 139.178 42.3267C139.759 42.0688 140.224 41.717 140.619 41.2246L139.41 40.099C138.852 40.7556 138.178 41.0839 137.364 41.0839C136.852 41.0839 136.41 40.9666 136.015 40.7556C135.62 40.5211 135.317 40.2162 135.085 39.8176C134.852 39.4189 134.759 38.9734 134.759 38.4575C134.759 37.9416 134.876 37.4961 135.085 37.0974C135.271 36.6753 135.596 36.3705 135.992 36.1594ZM103.064 20.5185C103.761 20.5185 110.11 20.5185 110.11 20.5185L123.76 2.2746H90.3434L69.74 29.8984L79.344 29.828L94.9477 8.93432H109.203L105.598 13.765H92.413L98.1336 29.8749H106.18L103.064 20.5185ZM105.249 37.9885L103.064 34.3304H101.064L104.226 39.6065V42.5378H106.11V39.63L109.272 34.3304H107.412L105.249 37.9885ZM72.9026 36.1594C73.2979 35.9249 73.7397 35.8311 74.2513 35.8311C75.0652 35.8311 75.7396 36.1594 76.2977 36.7926L77.5069 35.667C77.1116 35.198 76.6465 34.8463 76.0652 34.5883C75.4838 34.3304 74.8559 34.2131 74.1583 34.2131C73.3211 34.2131 72.577 34.4007 71.9026 34.7525C71.2282 35.1276 70.6934 35.6201 70.3213 36.2767C69.926 36.9333 69.74 37.6602 69.74 38.4575C69.74 39.2782 69.926 40.0052 70.3213 40.6383C70.7166 41.2949 71.2282 41.7874 71.9026 42.1626C72.577 42.5378 73.3211 42.7019 74.1583 42.7019C74.8559 42.7019 75.5071 42.5847 76.0884 42.3267C76.6698 42.0688 77.1349 41.717 77.5302 41.2246L76.321 40.099C75.7629 40.7556 75.0885 41.0839 74.2746 41.0839C73.763 41.0839 73.3211 40.9666 72.9258 40.7556C72.5305 40.5211 72.2282 40.2162 71.9956 39.8176C71.7631 39.4189 71.6701 38.9734 71.6701 38.4575C71.6701 37.9416 71.7864 37.4961 71.9956 37.0974C72.2049 36.6753 72.5072 36.3705 72.9026 36.1594ZM198.5 39.1375H202.29V37.6602H198.5V35.878H202.778V34.3538H196.616V42.5612H202.918V41.037H198.476V39.1375H198.5ZM192.849 2.29805H184.687L164.06 29.8984H174.036L187.547 11.2089L190.779 20.6826H181.082L183.408 27.4127H193.081L193.918 29.8984H202.941L192.849 2.29805ZM128.946 2.29805L108.319 29.8984H118.295L131.806 11.2089L135.038 20.6826H124.969L127.295 27.4127H137.341L138.178 29.8984H147.2L137.108 2.29805H128.946ZM167.153 34.3304H165.269V42.5378H171.245V40.9901H167.153V34.3304ZM169.129 2.29805L156.944 18.877C156.432 17.2121 151.13 2.29805 151.13 2.29805H141.945L152.595 29.8984H158.223L179.431 2.29805H169.129Z" fill="black"/>
<defs>
<linearGradient id="paint0_linear" x1="44.2853" y1="41.9614" x2="35.7313" y2="29.3221" gradientUnits="userSpaceOnUse">
<stop stop-color="white"/>
<stop offset="1"/>
</linearGradient>
<linearGradient id="paint1_linear" x1="18.661" y1="41.9553" x2="10.0927" y2="29.2949" gradientUnits="userSpaceOnUse">
<stop stop-color="white"/>
<stop offset="1"/>
</linearGradient>
<linearGradient id="paint2_linear" x1="7.7459" y1="25.2298" x2="17.1135" y2="9.67664" gradientUnits="userSpaceOnUse">
<stop stop-color="white"/>
<stop offset="1"/>
</linearGradient>
</defs>
</svg>
