<?xml version="1.0" encoding="utf-8"?>
<!-- Generator: Adobe Illustrator 24.3.0, SVG Export Plug-In . SVG Version: 6.00 Build 0)  -->
<svg version="1.1" xmlns="http://www.w3.org/2000/svg" xmlns:xlink="http://www.w3.org/1999/xlink" x="0px" y="0px"
	 viewBox="0 0 28 28" xml:space="preserve">
<path class="st0" d="M27.1,24.9l-4.8-4.8c1.6-2.1,2.6-4.7,2.6-7.5c0-6.7-5.5-12.2-12.2-12.2S0.5,6,0.5,12.7S6,24.8,12.7,24.8
	c2.8,0,5.4-1,7.5-2.6l4.8,4.8c0.3,0.3,0.7,0.4,1.1,0.4s0.8-0.1,1.1-0.4C27.6,26.5,27.6,25.5,27.1,24.9z M3.5,12.7
	c0-5.1,4.1-9.2,9.2-9.2s9.2,4.1,9.2,9.2c0,2.5-1,4.8-2.7,6.5c0,0,0,0,0,0s0,0,0,0c-1.7,1.6-3.9,2.7-6.5,2.7
	C7.6,21.8,3.5,17.7,3.5,12.7z"/>
</svg>
